# Blender 4.1.1
# www.blender.org
mtllib road.mtl
o road_straight
v -1.000000 0.000000 1.000000
v -1.000000 0.070000 1.000000
v -1.000000 -0.000000 -1.000000
v -1.000000 0.070000 -1.000000
v 1.000000 0.000000 1.000000
v 1.000000 0.070000 1.000000
v 1.000000 -0.000000 -1.000000
v 1.000000 0.070000 -1.000000
v 0.900000 -0.000000 -1.000000
v -0.900000 -0.000000 -1.000000
v -0.900000 0.070000 -1.000000
v 0.900000 0.070000 -1.000000
v -0.900000 0.000000 1.000000
v 0.900000 0.000000 1.000000
v 0.900000 0.070000 1.000000
v -0.900000 0.070000 1.000000
v -1.000000 0.100000 1.000000
v -1.000000 0.100000 -1.000000
v 1.000000 0.100000 -1.000000
v 1.000000 0.100000 1.000000
v -0.930000 0.100000 -1.000000
v 0.930000 0.100000 -1.000000
v 0.930000 0.100000 1.000000
v -0.930000 0.100000 1.000000
v -0.020000 0.073000 -0.900000
v 0.020000 0.073000 -0.900000
v 0.020000 0.073000 -0.700000
v -0.020000 0.073000 -0.700000
v -0.620000 0.073000 -1.000000
v -0.580000 0.073000 -1.000000
v -0.580000 0.073001 1.000000
v -0.620000 0.073001 1.000000
v 0.580000 0.073000 -1.000000
v 0.620000 0.073000 -1.000000
v 0.620000 0.073001 1.000000
v 0.580000 0.073001 1.000000
v -0.020000 0.073000 -0.500000
v 0.020000 0.073000 -0.500000
v 0.020000 0.073000 -0.300000
v -0.020000 0.073000 -0.300000
v -0.020000 0.073000 -0.100000
v 0.020000 0.073000 -0.100000
v 0.020000 0.073000 0.100000
v -0.020000 0.073000 0.100000
v -0.020000 0.073000 0.300000
v 0.020000 0.073000 0.300000
v 0.020000 0.073000 0.500000
v -0.020000 0.073000 0.500000
v -0.020000 0.073001 0.700000
v 0.020000 0.073001 0.700000
v 0.020000 0.073001 0.900000
v -0.020000 0.073001 0.900000
vn -1.0000 -0.0000 -0.0000
vn -0.0000 1.0000 -0.0000
vn 1.0000 -0.0000 -0.0000
vn -0.0000 -0.0000 -1.0000
vn -0.0000 -0.0000 1.0000
vn 0.7071 0.7071 -0.0000
vn -0.0000 -1.0000 -0.0000
vn -0.7071 0.7071 -0.0000
vt 0.308694 0.811717
vt 0.308694 0.825770
vt 0.345504 0.863281
vt 0.341823 0.863281
vt 0.345504 0.811717
vt 0.345504 0.825770
vt 0.312375 0.825770
vt 0.312375 0.811717
vt 0.341823 0.825770
vt 0.341823 0.811717
vt 0.341823 0.832031
vt 0.345504 0.832031
vt 0.312375 0.832031
vt 0.308694 0.832031
vt 0.341823 0.780467
vt 0.312375 0.780467
vt 0.341823 0.791153
vt 0.312375 0.791153
vt 0.312375 0.863281
vt 0.308694 0.863281
vt 0.216823 0.916153
vt 0.187375 0.916153
vt 0.466823 0.666153
vt 0.437375 0.666153
s 1
usemtl citybits_texture.001
f 1/1/1 2/2/1 4/2/1 3/1/1
f 19/3/2 22/4/2 23/4/2 20/3/2
f 7/5/3 8/6/3 6/6/3 5/5/3
f 4/2/4 11/7/4 10/8/4 3/1/4
f 6/6/5 15/9/5 14/10/5 5/5/5
f 8/6/4 12/9/4 22/11/4 19/12/4
f 16/7/6 11/7/6 21/13/6 24/13/6
f 11/7/4 4/2/4 18/14/4 21/13/4
f 9/15/7 14/15/7 13/16/7 10/16/7
f 15/17/5 16/18/5 13/16/5 14/15/5
f 3/1/7 10/8/7 13/8/7 1/1/7
f 9/10/7 7/5/7 5/5/7 14/10/7
f 11/18/4 12/17/4 9/15/4 10/16/4
f 13/8/5 16/7/5 2/2/5 1/1/5
f 9/10/4 12/9/4 8/6/4 7/5/4
f 2/2/5 16/7/5 24/13/5 17/14/5
f 21/19/2 18/20/2 17/20/2 24/19/2
f 6/6/3 8/6/3 19/12/3 20/12/3
f 12/9/8 15/9/8 23/11/8 22/11/8
f 4/2/1 2/2/1 17/14/1 18/14/1
f 6/6/5 20/12/5 23/11/5 15/9/5
f 15/17/2 12/17/2 11/18/2 16/18/2
f 27/21/2 26/21/2 25/22/2 28/22/2
f 31/23/2 30/23/2 29/24/2 32/24/2
f 35/23/2 34/23/2 33/24/2 36/24/2
f 39/21/2 38/21/2 37/22/2 40/22/2
f 43/21/2 42/21/2 41/22/2 44/22/2
f 47/21/2 46/21/2 45/22/2 48/22/2
f 51/21/2 50/21/2 49/22/2 52/22/2
