# Blender 4.1.1
# www.blender.org
mtllib Flowers.mtl
o Flowers
v -0.160115 0.163801 -0.094915
v -0.157545 0.157907 -0.121174
v -0.243130 0.426240 -0.071107
v -0.248425 0.427721 -0.090641
v -0.050044 -0.003356 -0.095021
v -0.043747 -0.003263 -0.128489
v -0.246877 0.631837 -0.062826
v -0.250759 0.632974 -0.077405
v -0.272939 0.624152 -0.099317
v -0.218036 0.627921 -0.115857
v -0.295931 0.636429 -0.119766
v -0.212223 0.642106 -0.142990
v -0.300345 0.704540 -0.175008
v -0.255120 0.707660 -0.189063
v -0.281501 0.716393 -0.189741
v -0.203163 0.626764 -0.058070
v -0.257140 0.623169 -0.044976
v -0.178487 0.640428 -0.038973
v -0.270589 0.634319 -0.017372
v -0.192352 0.703845 0.024267
v -0.238342 0.700776 0.035580
v -0.213252 0.712374 0.038518
v -0.200810 0.642709 -0.141253
v -0.176880 0.640891 -0.049542
v -0.143553 0.712086 -0.130222
v -0.131078 0.711209 -0.084439
v -0.129751 0.722417 -0.109841
v -0.281628 0.633756 -0.019614
v -0.300413 0.635914 -0.112508
v -0.345998 0.696793 -0.029415
v -0.355904 0.697841 -0.075819
v -0.359849 0.706945 -0.049853
v -0.166738 0.156350 -0.095906
v -0.164111 0.150500 -0.122167
v -0.250353 0.425380 -0.069336
v -0.255643 0.426905 -0.088857
v -0.057456 -0.009365 -0.096367
v -0.051159 -0.009273 -0.129835
v -0.254422 0.631409 -0.060850
v -0.258304 0.632546 -0.075429
v -0.272001 0.631841 -0.098311
v -0.219379 0.635453 -0.114279
v -0.294978 0.642550 -0.115008
v -0.211292 0.648281 -0.138298
v -0.298682 0.708734 -0.168632
v -0.253457 0.711848 -0.182683
v -0.280018 0.721330 -0.183873
v -0.204956 0.634339 -0.058715
v -0.256873 0.630897 -0.046077
v -0.179948 0.646695 -0.043400
v -0.272048 0.640598 -0.021784
v -0.194138 0.708277 0.018088
v -0.240128 0.705203 0.029397
v -0.214976 0.717526 0.032905
v -0.205767 0.648578 -0.139841
v -0.181780 0.646812 -0.048146
v -0.150085 0.715962 -0.128398
v -0.137613 0.715080 -0.082614
v -0.135787 0.727062 -0.108107
v -0.277453 0.640315 -0.020355
v -0.296216 0.642460 -0.113252
v -0.339882 0.701509 -0.030585
v -0.349784 0.702552 -0.076989
v -0.354319 0.712359 -0.050912
v -0.226436 0.637899 -0.100554
v -0.259190 0.635636 -0.090794
v -0.249812 0.635031 -0.058373
v -0.217579 0.637202 -0.066303
v -0.239208 0.649934 -0.078653
v -0.063422 0.131696 -0.246384
v -0.037014 0.131763 -0.248390
v -0.152450 0.334041 -0.333054
v -0.134234 0.334790 -0.341936
v -0.039087 0.000172 -0.103380
v -0.005083 0.000172 -0.103380
v -0.172556 0.531249 -0.378726
v -0.158965 0.531808 -0.385353
v -0.140914 0.519140 -0.409092
v -0.115136 0.533750 -0.359857
v -0.125475 0.526987 -0.437333
v -0.088127 0.549166 -0.361888
v -0.075275 0.593690 -0.464558
v -0.053619 0.605745 -0.424084
v -0.058041 0.609185 -0.451310
v -0.169258 0.534715 -0.334723
v -0.191494 0.520504 -0.383728
v -0.184338 0.552657 -0.310004
v -0.221551 0.528443 -0.393763
v -0.252053 0.611287 -0.323798
v -0.271152 0.599171 -0.365522
v -0.270172 0.615389 -0.342968
v -0.087848 0.551955 -0.350673
v -0.173686 0.553569 -0.310474
v -0.091962 0.630990 -0.306519
v -0.134721 0.631929 -0.285946
v -0.110063 0.643529 -0.291427
v -0.221270 0.525773 -0.404718
v -0.133377 0.525511 -0.440233
v -0.226090 0.575205 -0.480523
v -0.182275 0.574943 -0.498762
v -0.208942 0.582748 -0.499541
v -0.063605 0.125937 -0.253040
v -0.037182 0.125991 -0.254974
v -0.155497 0.331562 -0.339806
v -0.137297 0.332352 -0.348695
v -0.039087 -0.005828 -0.110893
v -0.005083 -0.005828 -0.110893
v -0.175810 0.529333 -0.385564
v -0.162220 0.529892 -0.392190
v -0.142113 0.526850 -0.409456
v -0.117292 0.540853 -0.362286
v -0.130282 0.533111 -0.436700
v -0.092877 0.555339 -0.361299
v -0.081455 0.598038 -0.462581
v -0.059802 0.610088 -0.422103
v -0.063789 0.614235 -0.449738
v -0.169311 0.541805 -0.338001
v -0.190742 0.528151 -0.385131
v -0.180550 0.558579 -0.313407
v -0.217778 0.534378 -0.397163
v -0.246511 0.615372 -0.327488
v -0.265606 0.603250 -0.369212
v -0.265212 0.620183 -0.346631
v -0.090398 0.556727 -0.356307
v -0.176214 0.558403 -0.316064
v -0.095098 0.633496 -0.313219
v -0.137859 0.634429 -0.292648
v -0.113060 0.646886 -0.297811
v -0.220124 0.533029 -0.402063
v -0.132223 0.532758 -0.437557
v -0.224090 0.581037 -0.475727
v -0.180273 0.580770 -0.493961
v -0.207189 0.589149 -0.495422
v -0.132151 0.541690 -0.367048
v -0.147424 0.532962 -0.396438
v -0.177608 0.533749 -0.381348
v -0.164222 0.542260 -0.352108
v -0.156526 0.550708 -0.377640
v -0.038619 0.179838 -0.010468
v -0.011150 0.179838 -0.010468
v -0.039087 -0.001368 -0.028263
v -0.005083 -0.001368 -0.028263
v -0.034202 0.712512 -0.045057
v -0.015651 0.713558 -0.046321
v 0.015700 0.703365 -0.068771
v 0.023127 0.703365 0.001571
v 0.046080 0.719205 -0.090887
v 0.054992 0.719205 0.015900
v 0.115839 0.800794 -0.078261
v 0.122477 0.800794 -0.020219
v 0.129639 0.813373 -0.051222
v -0.050188 0.703365 0.006219
v -0.053660 0.703365 -0.062204
v -0.078574 0.719205 0.032705
v -0.083599 0.719205 -0.083876
v -0.149982 0.800794 0.006466
v -0.153128 0.800794 -0.051869
v -0.162137 0.813373 -0.021351
v 0.050274 0.719205 0.029325
v -0.066156 0.719205 0.037096
v 0.025727 0.800794 0.101332
v -0.032518 0.800794 0.105852
v -0.001796 0.813373 0.114138
v -0.078356 0.719205 -0.096732
v 0.038326 0.719205 -0.097996
v -0.049830 0.800794 -0.167257
v 0.008577 0.800794 -0.168521
v -0.021635 0.813373 -0.178508
v -0.107411 0.598197 -0.064129
v -0.110765 0.568698 -0.066955
v -0.118402 0.584859 -0.068378
v -0.028329 0.588107 -0.045479
v -0.030741 0.564539 -0.047863
v -0.038756 0.179677 -0.020081
v -0.011287 0.179674 -0.020081
v -0.039087 -0.000428 -0.037832
v -0.005083 -0.000428 -0.037832
v -0.034861 0.712609 -0.054649
v -0.016310 0.713656 -0.055913
v 0.014490 0.712785 -0.067269
v 0.021748 0.712778 0.000178
v 0.040286 0.726859 -0.090346
v 0.049284 0.726923 0.016434
v 0.107868 0.806100 -0.077385
v 0.114502 0.806093 -0.019343
v 0.122346 0.819582 -0.050388
v -0.048777 0.712769 0.004795
v -0.052167 0.712790 -0.061026
v -0.072704 0.726815 0.032443
v -0.077747 0.726830 -0.084137
v -0.141974 0.806100 0.006070
v -0.145115 0.806093 -0.052265
v -0.154806 0.819582 -0.021747
v 0.049883 0.726828 0.023478
v -0.066542 0.726886 0.031326
v 0.025142 0.806100 0.093335
v -0.033103 0.806093 0.097850
v -0.002364 0.819582 0.106819
v -0.078235 0.726931 -0.091010
v 0.038446 0.726913 -0.092249
v -0.049692 0.806100 -0.159240
v 0.008714 0.806093 -0.160499
v -0.021476 0.819582 -0.171169
v 0.006857 0.716876 -0.011286
v 0.002556 0.716854 -0.053228
v -0.038815 0.716835 -0.049369
v -0.036608 0.716859 -0.008482
v -0.016319 0.733509 -0.030769
v -0.105066 0.598879 -0.073428
v -0.108421 0.569379 -0.076255
v -0.116058 0.585541 -0.077678
v -0.025985 0.588788 -0.054779
v -0.028397 0.565221 -0.057162
v 0.070596 0.280232 -0.027048
v 0.070538 0.310042 -0.026146
v 0.080365 0.295103 -0.027485
v -0.011247 0.279325 -0.024966
v -0.011529 0.303127 -0.024425
v 0.070287 0.280466 -0.036655
v 0.070228 0.310276 -0.035752
v 0.080056 0.295337 -0.037092
v -0.011556 0.279559 -0.034573
v -0.011838 0.303361 -0.034032
vn 0.9443 0.3174 -0.0868
vn 0.8250 0.5610 0.0680
vn 0.9658 0.0278 -0.2577
vn -0.0731 -0.8826 -0.4644
vn 0.2143 -0.6679 0.7127
vn -0.1899 -0.6320 -0.7513
vn 0.1616 -0.8870 0.4325
vn 0.7679 -0.6033 -0.2152
vn 0.2207 -0.6596 0.7185
vn 0.5068 -0.8492 -0.1484
vn -0.7018 -0.7007 0.1284
vn 0.7728 -0.5946 -0.2220
vn -0.3803 -0.9222 0.0697
vn 0.1753 0.6321 0.7548
vn -0.7080 -0.6931 0.1355
vn -0.9460 -0.3131 0.0846
vn -0.8247 -0.5613 -0.0691
vn -0.9658 -0.0295 0.2575
vn 0.0776 0.8752 0.4776
vn -0.2144 0.6671 -0.7134
vn 0.1908 0.6291 0.7536
vn -0.1648 0.8785 -0.4483
vn -0.7686 0.6023 0.2154
vn -0.2212 0.6567 -0.7210
vn -0.5218 0.8393 0.1525
vn 0.7028 0.6997 -0.1286
vn -0.7750 0.5915 0.2225
vn 0.3927 0.9168 -0.0722
vn 0.8596 0.2568 -0.4417
vn 0.7105 0.6904 -0.1361
vn 0.0171 0.9446 0.3276
vn -0.1396 0.9596 -0.2441
vn -0.3438 0.9318 0.1166
vn 0.2472 0.9679 -0.0446
vn 0.5561 0.8214 -0.1271
vn -0.6479 0.7347 0.2011
vn -0.2236 0.7933 -0.5663
vn 0.1010 0.7758 0.6229
vn 0.0947 -0.0645 0.9934
vn -0.1051 0.0808 -0.9912
vn 0.0725 0.0975 -0.9926
vn -0.1003 -0.0678 0.9926
vn -0.0338 0.9957 0.0866
vn 0.2486 -0.0347 0.9680
vn -0.2511 0.0596 -0.9661
vn 0.9715 -0.0737 0.2251
vn -0.6749 -0.2036 0.7092
vn -0.9838 0.0730 0.1635
vn -0.9068 0.1239 0.4029
vn -0.6823 0.6591 -0.3162
vn 0.2750 0.7358 -0.6188
vn -0.8882 -0.2317 -0.3968
vn 0.6125 -0.1410 -0.7778
vn 0.9661 0.2552 -0.0384
vn 0.4083 0.1826 0.8944
vn 0.5813 0.7075 0.4020
vn -0.3938 0.6527 0.6472
vn -0.7715 -0.2304 -0.5931
vn -0.0812 0.2265 -0.9706
vn -0.3829 0.1974 -0.9025
vn 0.3219 0.7276 -0.6058
vn 0.5907 0.7198 0.3646
vn 0.7163 -0.1345 0.6847
vn -0.2660 -0.1846 0.9461
vn 0.0042 0.1633 0.9866
vn 0.7412 -0.6448 -0.1868
vn -0.4360 0.6403 0.6324
vn -0.6516 0.6726 -0.3506
vn 0.4269 -0.1375 -0.8938
vn 0.2006 0.4735 0.8577
vn 0.0215 0.7402 0.6720
vn 0.4167 0.2452 0.8753
vn 0.4868 -0.8735 0.0113
vn -0.6301 -0.6232 0.4632
vn 0.7359 -0.6465 -0.2012
vn -0.3532 -0.8445 0.4026
vn 0.3767 -0.4393 0.8156
vn -0.6351 -0.6138 0.4689
vn 0.2770 -0.7322 0.6222
vn -0.2160 -0.8256 -0.5212
vn 0.3838 -0.4297 0.8173
vn -0.0907 -0.9795 -0.1800
vn -0.7419 0.6437 0.1877
vn -0.2244 -0.8195 -0.5274
vn -0.1997 -0.4698 -0.8599
vn -0.0209 -0.7375 -0.6750
vn -0.4168 -0.2453 -0.8753
vn -0.4985 0.8669 -0.0032
vn 0.6309 0.6224 -0.4633
vn -0.7378 0.6438 0.2030
vn 0.3687 0.8357 -0.4069
vn -0.3770 0.4382 -0.8160
vn 0.6376 0.6109 -0.4693
vn -0.2832 0.7195 -0.6341
vn 0.2164 0.8248 0.5223
vn -0.3846 0.4263 -0.8188
vn 0.0956 0.9766 0.1925
vn 0.5736 0.4253 0.7001
vn 0.2256 0.8173 0.5302
vn -0.3652 0.9253 -0.1021
vn 0.1684 0.9174 -0.3606
vn -0.2208 0.8454 -0.4864
vn 0.0402 0.9981 0.0475
vn 0.1831 0.9155 0.3581
vn -0.3481 0.5917 -0.7271
vn 0.4785 0.7423 -0.4691
vn -0.6324 0.7720 0.0648
vn -0.8984 -0.2429 0.3658
vn 0.8906 0.2580 -0.3744
vn 0.9868 0.1184 -0.1107
vn -0.9921 -0.0896 0.0872
vn -0.1398 0.9688 -0.2049
vn -0.9077 0.0042 0.4196
vn 0.9043 0.0198 -0.4265
vn -0.0459 0.1137 0.9925
vn -0.8065 -0.3408 -0.4831
vn -0.3381 -0.1221 -0.9331
vn -0.5624 -0.0605 -0.8247
vn 0.1580 0.5180 -0.8406
vn 0.6210 0.7837 0.0132
vn 0.2444 -0.3947 -0.8857
vn 0.8797 -0.0084 0.4754
vn 0.1960 0.4388 0.8769
vn -0.8160 0.2463 0.5230
vn -0.3270 0.8015 0.5007
vn -0.7377 0.5546 -0.3849
vn 0.4579 -0.3680 -0.8092
vn 0.9288 0.2197 -0.2986
vn 0.8099 0.1315 -0.5717
vn 0.6168 0.7846 0.0623
vn -0.2891 0.8159 0.5007
vn -0.5399 -0.0019 0.8417
vn -0.9681 -0.2458 -0.0488
vn -0.9771 0.1475 0.1536
vn -0.7300 0.5344 -0.4260
vn 0.1967 0.5377 -0.8199
vn 0.9608 -0.0395 0.2744
vn -0.0259 -0.0658 -0.9975
vn -0.0000 -0.0977 0.9952
vn 0.4491 -0.8925 -0.0414
vn -0.7557 -0.6540 0.0353
vn 0.7586 -0.6458 -0.0868
vn -0.4758 -0.8793 0.0218
vn 0.0531 -0.6540 0.7547
vn -0.7624 -0.6458 0.0411
vn 0.0308 -0.8818 0.4706
vn -0.0109 -0.6540 -0.7565
vn 0.0591 -0.6458 0.7612
vn -0.0187 -0.8956 -0.4444
vn -0.7592 0.6468 0.0718
vn -0.0165 -0.6458 -0.7634
vn -0.0000 -1.0000 -0.0000
vn -0.2401 -0.0687 0.9683
vn -0.9991 0.0105 0.0414
vn -0.0000 0.0981 -0.9952
vn -0.4630 0.8853 0.0429
vn 0.7564 0.6531 -0.0354
vn -0.7610 0.6429 0.0871
vn 0.4917 0.8704 -0.0226
vn -0.0533 0.6530 -0.7554
vn 0.7649 0.6429 -0.0413
vn -0.0322 0.8730 -0.4867
vn 0.0109 0.6529 0.7574
vn -0.0593 0.6429 -0.7637
vn 0.0188 0.8894 0.4567
vn 0.2786 0.1910 0.9412
vn 0.0166 0.6429 0.7658
vn -0.3028 0.9529 0.0159
vn 0.2884 0.9570 -0.0306
vn -0.0281 0.9537 -0.2996
vn 0.0201 0.9498 0.3121
vn 0.0398 0.7828 0.6210
vn -0.0587 0.7776 -0.6260
vn 0.6167 0.7847 -0.0637
vn -0.6124 0.7899 0.0326
vn 0.2401 0.0687 -0.9683
vn 0.9991 0.0061 -0.0414
vn 0.9994 0.0345 -0.0057
vn -1.0000 0.0015 0.0072
vn -0.0554 0.9984 0.0140
vn -0.4049 -0.1221 0.9062
vn -0.5747 -0.1392 -0.8065
vn 0.0257 0.1356 -0.9904
vn -0.2226 0.1902 -0.9562
vn 0.4539 0.6862 -0.5685
vn 0.5733 0.6966 0.4313
vn 0.5507 -0.1936 -0.8119
vn 0.6456 -0.2034 0.7361
vn -0.1375 0.1972 0.9707
vn -0.9506 0.1897 0.2458
vn -0.4872 0.6862 0.5402
vn -0.5464 0.6966 -0.4649
vn 0.7217 -0.2059 -0.6609
vn 0.9737 0.1968 0.1151
vn 0.9626 0.1876 -0.1952
vn 0.5516 0.6862 0.4743
vn -0.4519 0.6966 0.5572
vn -0.8098 -0.1518 0.5667
vn -0.8835 -0.1357 -0.4483
vn -0.9657 0.1972 -0.1688
vn -0.5242 0.6862 -0.5043
vn 0.4823 0.6966 -0.5311
vn 0.7944 -0.1932 0.5759
vn -0.7420 0.6558 -0.1390
vn -0.8667 -0.4316 -0.2501
vn 0.0259 0.0659 0.9975
vn -0.0324 -0.9962 -0.0812
vn 0.9645 -0.1224 0.2342
vn 0.0286 -0.0270 0.9992
vn -0.0286 0.0270 -0.9992
vn 0.8346 -0.5494 -0.0402
vn 0.8348 0.5504 -0.0135
vn 0.1031 0.9898 0.0985
vn -0.0834 0.9962 0.0269
vn -0.9994 -0.0126 0.0319
vn 0.7582 -0.6480 -0.0715
vn -0.1748 -0.6333 -0.7539
vn 0.0105 -0.9996 -0.0247
vn 0.0933 -0.9668 0.2380
vn 0.0580 -0.9977 -0.0349
s 0
usemtl Green
f 1//1 2//1 4//1 3//1
f 2//2 1//2 5//2 6//2
f 3//3 4//3 8//3 7//3
f 33//16 35//16 36//16 34//16
f 34//17 38//17 37//17 33//17
f 35//18 39//18 40//18 36//18
f 1//39 3//39 35//39 33//39
f 4//40 2//40 34//40 36//40
f 2//41 6//41 38//41 34//41
f 5//42 1//42 33//42 37//42
f 7//43 8//43 40//43 39//43
f 3//44 7//44 39//44 35//44
f 8//45 4//45 36//45 40//45
f 70//70 71//70 73//70 72//70
f 71//71 70//71 74//71 75//71
f 72//72 73//72 77//72 76//72
f 102//85 104//85 105//85 103//85
f 103//86 107//86 106//86 102//86
f 104//87 108//87 109//87 105//87
f 70//108 72//108 104//108 102//108
f 73//109 71//109 103//109 105//109
f 71//110 75//110 107//110 103//110
f 74//111 70//111 102//111 106//111
f 76//112 77//112 109//112 108//112
f 72//113 76//113 108//113 104//113
f 77//114 73//114 105//114 109//114
f 174//138 178//138 179//138 175//138
f 140//139 139//139 141//139 142//139
f 169//153 171//153 170//153 173//153 172//153
f 139//154 143//154 178//154 174//154
f 175//155 177//155 176//155 174//155
f 209//176 212//176 213//176 210//176 211//176
f 144//177 140//177 175//177 179//177
f 140//178 142//178 177//178 175//178
f 141//179 139//179 174//179 176//179
f 143//180 144//180 179//180 178//180
f 171//204 169//204 209//204 211//204
f 170//205 171//205 211//205 210//205
f 140//206 144//206 143//206 139//206
f 173//207 170//207 210//207 213//207
f 172//208 173//208 213//208 212//208
f 214//209 216//209 215//209 218//209 217//209
f 219//210 222//210 223//210 220//210 221//210
f 216//211 214//211 219//211 221//211
f 215//212 216//212 221//212 220//212
f 169//213 172//213 212//213 209//213
f 218//214 215//214 220//214 223//214
f 217//215 218//215 223//215 222//215
f 214//218 217//218 222//218 219//218
usemtl Cyan
f 10//4 9//4 11//4 12//4
f 19//5 18//5 20//5 21//5
f 14//6 13//6 15//6
f 17//7 16//7 18//7 19//7
f 24//8 23//8 25//8 26//8
f 21//9 20//9 22//9
f 16//10 10//10 23//10 24//10
f 29//11 28//11 30//11 31//11
f 26//12 25//12 27//12
f 9//13 17//13 28//13 29//13
f 44//14 46//14 45//14 43//14
f 31//15 30//15 32//15
f 42//19 44//19 43//19 41//19
f 51//20 53//20 52//20 50//20
f 46//21 47//21 45//21
f 49//22 51//22 50//22 48//22
f 56//23 58//23 57//23 55//23
f 53//24 54//24 52//24
f 48//25 56//25 55//25 42//25
f 61//26 63//26 62//26 60//26
f 58//27 59//27 57//27
f 41//28 61//28 60//28 49//28
f 12//29 14//29 46//29 44//29
f 63//30 64//30 62//30
f 48//31 68//31 67//31 49//31
f 41//32 66//32 65//32 42//32
f 49//33 67//33 66//33 41//33
f 42//34 65//34 68//34 48//34
f 10//46 12//46 44//46 42//46
f 11//47 9//47 41//47 43//47
f 13//48 11//48 43//48 45//48
f 19//49 21//49 53//49 51//49
f 15//50 13//50 45//50 47//50
f 14//51 15//51 47//51 46//51
f 17//52 19//52 51//52 49//52
f 18//53 16//53 48//53 50//53
f 20//54 18//54 50//54 52//54
f 24//55 26//55 58//55 56//55
f 22//56 20//56 52//56 54//56
f 21//57 22//57 54//57 53//57
f 23//58 10//58 42//58 55//58
f 25//59 23//59 55//59 57//59
f 29//60 31//60 63//60 61//60
f 27//61 25//61 57//61 59//61
f 26//62 27//62 59//62 58//62
f 28//63 17//63 49//63 60//63
f 16//64 24//64 56//64 48//64
f 30//65 28//65 60//65 62//65
f 81//66 80//66 82//66 83//66
f 32//67 30//67 62//67 64//67
f 31//68 32//68 64//68 63//68
f 9//69 29//69 61//69 41//69
f 79//73 78//73 80//73 81//73
f 88//74 87//74 89//74 90//74
f 83//75 82//75 84//75
f 86//76 85//76 87//76 88//76
f 93//77 92//77 94//77 95//77
f 90//78 89//78 91//78
f 85//79 79//79 92//79 93//79
f 98//80 97//80 99//80 100//80
f 95//81 94//81 96//81
f 78//82 86//82 97//82 98//82
f 113//83 115//83 114//83 112//83
f 100//84 99//84 101//84
f 111//88 113//88 112//88 110//88
f 120//89 122//89 121//89 119//89
f 115//90 116//90 114//90
f 118//91 120//91 119//91 117//91
f 125//92 127//92 126//92 124//92
f 122//93 123//93 121//93
f 117//94 125//94 124//94 111//94
f 130//95 132//95 131//95 129//95
f 127//96 128//96 126//96
f 110//97 130//97 129//97 118//97
f 81//98 83//98 115//98 113//98
f 132//99 133//99 131//99
f 117//100 137//100 136//100 118//100
f 110//101 135//101 134//101 111//101
f 118//102 136//102 135//102 110//102
f 111//103 134//103 137//103 117//103
f 79//115 81//115 113//115 111//115
f 80//116 78//116 110//116 112//116
f 82//117 80//117 112//117 114//117
f 88//118 90//118 122//118 120//118
f 84//119 82//119 114//119 116//119
f 83//120 84//120 116//120 115//120
f 86//121 88//121 120//121 118//121
f 87//122 85//122 117//122 119//122
f 89//123 87//123 119//123 121//123
f 93//124 95//124 127//124 125//124
f 91//125 89//125 121//125 123//125
f 90//126 91//126 123//126 122//126
f 92//127 79//127 111//127 124//127
f 94//128 92//128 124//128 126//128
f 98//129 100//129 132//129 130//129
f 96//130 94//130 126//130 128//130
f 95//131 96//131 128//131 127//131
f 97//132 86//132 118//132 129//132
f 85//133 93//133 125//133 117//133
f 99//134 97//134 129//134 131//134
f 101//135 99//135 131//135 133//135
f 100//136 101//136 133//136 132//136
f 78//137 98//137 130//137 110//137
f 146//140 145//140 147//140 148//140
f 155//141 154//141 156//141 157//141
f 150//142 149//142 151//142
f 153//143 152//143 154//143 155//143
f 160//144 159//144 161//144 162//144
f 157//145 156//145 158//145
f 152//146 146//146 159//146 160//146
f 165//147 164//147 166//147 167//147
f 162//148 161//148 163//148
f 145//149 153//149 164//149 165//149
f 183//150 185//150 184//150 182//150
f 167//151 166//151 168//151
f 146//152 152//152 153//152 145//152
f 181//156 183//156 182//156 180//156
f 190//157 192//157 191//157 189//157
f 185//158 186//158 184//158
f 188//159 190//159 189//159 187//159
f 195//160 197//160 196//160 194//160
f 192//161 193//161 191//161
f 187//162 195//162 194//162 181//162
f 200//163 202//163 201//163 199//163
f 197//164 198//164 196//164
f 180//165 200//165 199//165 188//165
f 148//166 150//166 185//166 183//166
f 202//167 203//167 201//167
f 187//168 207//168 206//168 188//168
f 180//169 205//169 204//169 181//169
f 188//170 206//170 205//170 180//170
f 181//171 204//171 207//171 187//171
f 146//181 148//181 183//181 181//181
f 147//182 145//182 180//182 182//182
f 149//183 147//183 182//183 184//183
f 155//184 157//184 192//184 190//184
f 151//185 149//185 184//185 186//185
f 150//186 151//186 186//186 185//186
f 153//187 155//187 190//187 188//187
f 154//188 152//188 187//188 189//188
f 156//189 154//189 189//189 191//189
f 160//190 162//190 197//190 195//190
f 158//191 156//191 191//191 193//191
f 157//192 158//192 193//192 192//192
f 159//193 146//193 181//193 194//193
f 161//194 159//194 194//194 196//194
f 165//195 167//195 202//195 200//195
f 163//196 161//196 196//196 198//196
f 162//197 163//197 198//197 197//197
f 164//198 153//198 188//198 199//198
f 152//199 160//199 195//199 187//199
f 166//200 164//200 199//200 201//200
f 168//201 166//201 201//201 203//201
f 167//202 168//202 203//202 202//202
f 145//203 165//203 200//203 180//203
f 148//216 147//216 149//216 150//216
f 12//217 11//217 13//217 14//217
f 79//219 85//219 86//219 78//219
f 10//220 16//220 17//220 9//220
usemtl Yellow
f 65//35 69//35 68//35
f 67//36 69//36 66//36
f 66//37 69//37 65//37
f 68//38 69//38 67//38
f 134//104 138//104 137//104
f 136//105 138//105 135//105
f 135//106 138//106 134//106
f 137//107 138//107 136//107
f 204//172 208//172 207//172
f 206//173 208//173 205//173
f 205//174 208//174 204//174
f 207//175 208//175 206//175
