# Blender 4.1.1
# www.blender.org
mtllib road_corner.mtl
o road_corner
v -1.000000 0.000000 1.000000
v -1.000000 0.070000 1.000000
v -1.000000 -0.000000 -1.000000
v -1.000000 0.070000 -1.000000
v 1.000000 0.000000 1.000000
v 1.000000 0.070000 1.000000
v 1.000000 -0.000000 -1.000000
v 1.000000 0.070000 -1.000000
v 0.900000 -0.000000 -1.000000
v -0.900000 -0.000000 -1.000000
v -0.900000 0.070000 -1.000000
v 0.900000 0.070000 -1.000000
v -0.900000 0.000000 1.000000
v 0.900000 0.000000 1.000000
v 0.900000 0.070000 1.000000
v -0.900000 0.070000 1.000000
v -1.000000 -0.000000 -0.900000
v -1.000000 0.000000 0.900000
v -1.000000 0.070000 0.900000
v -1.000000 0.070000 -0.900000
v 1.000000 0.000000 0.900000
v 1.000000 -0.000000 -0.900000
v 1.000000 0.070000 -0.900000
v 1.000000 0.070000 0.900000
v 0.900000 0.070000 -0.900000
v 0.900000 0.070000 0.900000
v -0.900000 0.070000 0.900000
v -0.900000 -0.000000 -0.900000
v -0.900000 0.000000 0.900000
v 0.900000 -0.000000 -0.900000
v 0.900000 0.000000 0.900000
v -1.000000 0.100000 -1.000000
v 1.000000 0.100000 -1.000000
v 1.000000 0.100000 1.000000
v -1.000000 0.100000 1.000000
v 0.900000 0.100000 -1.000000
v 0.930000 0.100000 1.000000
v -0.930000 0.100000 1.000000
v -1.000000 0.100000 0.900000
v -1.000000 0.100000 -0.900000
v 1.000000 0.100000 -0.930000
v 1.000000 0.100000 0.930000
v 0.900000 0.100000 -0.930000
v 0.930000 0.100000 0.930000
v -0.930000 0.100000 0.900000
v -0.632716 0.070000 -0.900000
v -0.900000 0.070000 -0.632716
v -0.735001 0.070000 -0.879654
v -0.821714 0.070000 -0.821714
v -0.879654 0.070000 -0.735001
v -0.930000 0.100000 -0.662716
v -0.662716 0.100000 -0.930000
v -0.900000 0.100000 -0.999950
v -0.909654 0.100000 -0.765001
v -0.851714 0.100000 -0.851714
v -0.765001 0.100000 -0.909654
v 0.580000 0.073001 0.872417
v 0.620000 0.073001 1.000000
v 0.580000 0.073001 1.000000
v 0.872417 0.073000 0.580000
v 1.000000 0.073000 0.620000
v 1.000000 0.073000 0.580000
v 0.900000 0.073000 0.620000
v 0.620000 0.073001 0.900000
v 0.786717 0.073000 0.635182
v 0.693726 0.073001 0.693726
v 0.635182 0.073001 0.786717
v 0.602259 0.073001 0.760514
v 0.665647 0.073001 0.665647
v 0.760514 0.073000 0.602259
v -0.620000 0.073000 -0.327583
v -0.580000 0.073001 1.000000
v -0.620000 0.073001 1.000000
v -0.327583 0.073000 -0.620000
v 1.000000 0.073000 -0.580000
v 1.000000 0.073000 -0.620000
v -0.300000 0.073000 -0.580000
v -0.580000 0.073000 -0.300000
v -0.413283 0.073000 -0.564818
v -0.506274 0.073000 -0.506274
v -0.564818 0.073000 -0.413283
v -0.597741 0.073000 -0.439486
v -0.534353 0.073000 -0.534353
v -0.439486 0.073000 -0.597741
v 0.020000 0.073000 0.100000
v -0.020000 0.073000 0.100000
v -0.020000 0.073000 0.300000
v 0.020000 0.073000 0.300000
v 0.020000 0.073000 0.500000
v -0.020000 0.073000 0.500000
v -0.020000 0.073001 0.700000
v 0.020000 0.073001 0.700000
v 0.020000 0.073001 0.900000
v -0.020000 0.073001 0.900000
v 0.900000 0.073000 -0.020000
v 0.900000 0.073000 0.020000
v 0.700000 0.073000 0.020000
v 0.700000 0.073000 -0.020000
v 0.500000 0.073000 -0.020000
v 0.500000 0.073000 0.020000
v 0.300000 0.073000 0.020000
v 0.300000 0.073000 -0.020000
v 0.100000 0.073000 -0.020000
v 0.100000 0.073000 0.020000
v -0.020000 0.073000 0.100000
v 0.100000 0.073000 -0.020000
v -0.010866 0.073000 0.054078
v 0.015147 0.073000 0.015147
v 0.054078 0.073000 -0.010866
v 0.100000 0.073000 0.020000
v 0.020000 0.073000 0.100000
v 0.069385 0.073000 0.026090
v 0.043431 0.073000 0.043431
v 0.026090 0.073000 0.069385
vn -0.0000 1.0000 -0.0000
vn -1.0000 -0.0000 -0.0000
vn 0.0001 0.0004 -1.0000
vn -0.0000 -0.0000 -1.0000
vn 0.7071 0.7071 -0.0000
vn -0.0000 -1.0000 -0.0000
vn -0.0000 0.0002 -1.0000
vn -0.0000 -0.0000 1.0000
vn 0.0003 0.0008 -1.0000
vn 0.0001 0.0008 -1.0000
vn -0.0000 0.7071 -0.7071
vn 1.0000 -0.0000 -0.0000
vn 0.6600 0.7463 0.0863
vn 0.6849 0.7274 0.0424
vn 0.0424 0.7274 0.6849
vn -0.0000 0.7071 0.7071
vn 0.0863 0.7463 0.6600
vn -0.7071 0.7071 -0.0000
vn -0.0000 0.0004 -1.0000
vn 0.2497 0.7981 0.5484
vn 0.2091 0.7881 0.5789
vn 0.4082 0.8165 0.4082
vn 0.5484 0.7981 0.2497
vn 0.5789 0.7881 0.2091
vt 0.341823 0.791153
vt 0.345504 0.791153
vt 0.308694 0.825770
vt 0.308694 0.811717
vt 0.312375 0.825770
vt 0.312375 0.811717
vt 0.308694 0.863281
vt 0.308696 0.863281
vt 0.312375 0.863281
vt 0.312375 0.832031
vt 0.308694 0.832031
vt 0.341823 0.811717
vt 0.341823 0.825770
vt 0.345504 0.825770
vt 0.345504 0.811717
vt 0.312375 0.791153
vt 0.312375 0.780467
vt 0.341823 0.780467
vt 0.341823 0.832031
vt 0.345504 0.832031
vt 0.345504 0.780467
vt 0.316748 0.825770
vt 0.316748 0.832031
vt 0.341823 0.863281
vt 0.345504 0.863281
vt 0.316748 0.863281
vt 0.315075 0.832031
vt 0.315075 0.825770
vt 0.312375 0.791153
vt 0.313124 0.863281
vt 0.308696 0.863281
vt 0.466823 0.666153
vt 0.437375 0.666153
vt 0.437375 0.666153
vt 0.487541 0.666153
vt 0.458736 0.666153
vt 0.487541 0.666153
vt 0.458736 0.666153
vt 0.216823 0.916153
vt 0.187375 0.916153
vt 0.221306 0.916153
vt 0.194100 0.916153
vt 0.213250 0.916153
vt 0.221306 0.916153
vt 0.194100 0.916153
vt 0.312708 0.791153
vt 0.316748 0.791153
vt 0.315075 0.791153
vt 0.313656 0.791153
s 1
usemtl citybits_texture.002
f 26/1/1 24/2/1 23/2/1 25/1/1
f 2/3/2 19/3/2 18/4/2 1/4/2
f 4/3/3 11/5/3 10/6/4 3/4/4
f 32/7/1 40/8/1 53/9/1
f 16/5/5 27/5/5 45/10/5 38/10/5
f 2/3/2 35/11/2 39/11/2 19/3/2
f 18/4/6 29/6/6 13/6/6 1/4/6
f 10/6/6 28/6/6 17/4/6 3/4/6
f 9/12/4 12/13/7 8/14/4 7/15/4
f 15/1/8 16/16/8 13/17/8 14/18/8
f 11/5/3 4/3/3 32/11/9 53/10/10
f 11/5/3 12/13/7 9/12/4 10/6/4
f 31/12/6 21/15/6 5/15/6 14/12/6
f 24/14/11 26/13/11 44/19/11 42/20/11
f 30/18/6 31/18/6 29/17/6 28/17/6
f 29/17/6 31/18/6 14/18/6 13/17/6
f 9/12/6 30/12/6 28/6/6 10/6/6
f 28/6/6 29/6/6 18/4/6 17/4/6
f 21/21/6 31/18/6 30/18/6 22/21/6
f 7/15/6 22/15/6 30/12/6 9/12/6
f 8/14/12 33/20/12 41/20/12 23/14/12
f 6/14/8 34/20/8 37/19/8 15/13/8
f 19/3/2 39/11/2 40/11/2 20/3/2
f 51/10/13 45/10/5 27/5/5 47/5/14
f 4/3/2 20/3/2 40/11/2 32/11/2
f 46/22/15 25/13/16 43/19/16 52/23/17
f 26/1/1 27/16/1 16/16/1 15/1/1
f 15/13/18 37/19/18 44/19/18 26/13/18
f 6/14/12 24/14/12 42/20/12 34/20/12
f 25/13/16 23/14/16 41/20/16 43/19/16
f 8/14/4 12/13/7 36/19/19 33/20/4
f 2/3/8 16/5/8 38/10/8 35/11/8
f 43/24/1 41/25/1 33/25/1 36/24/1
f 11/5/3 53/10/10 36/19/19 12/13/7
f 23/2/12 24/2/12 21/21/12 22/21/12
f 21/15/12 24/14/12 6/14/12 5/15/12
f 19/3/2 20/3/2 17/4/2 18/4/2
f 17/4/2 20/3/2 4/3/2 3/4/2
f 13/6/8 16/5/8 2/3/8 1/4/8
f 39/7/1 45/9/1 51/9/1 40/7/1
f 53/9/1 52/26/1 43/24/1 36/24/1
f 45/9/1 39/7/1 35/7/1 38/9/1
f 42/25/1 44/24/1 37/24/1 34/25/1
f 6/14/8 15/13/8 14/12/8 5/15/8
f 8/14/12 23/14/12 22/15/12 7/15/12
f 56/9/1 52/9/1 53/9/1
f 46/22/15 52/23/17 56/27/20 48/28/21
f 48/28/21 56/27/20 55/10/22 49/5/22
f 49/5/22 55/10/22 54/10/23 50/5/24
f 50/5/24 54/10/23 51/10/13 47/5/14
f 26/1/1 47/29/1 27/16/1
f 54/30/1 55/9/1 40/31/1
f 40/31/1 55/9/1 53/9/1
f 55/9/1 56/9/1 53/9/1
f 51/9/1 54/30/1 40/31/1
f 58/32/1 64/32/1 57/33/1 59/33/1
f 63/32/1 61/32/1 62/33/1 60/33/1
f 57/34/1 64/32/1 67/35/1 68/36/1
f 68/36/1 67/35/1 66/32/1 69/32/1
f 69/32/1 66/32/1 65/37/1 70/38/1
f 70/38/1 65/37/1 63/32/1 60/34/1
f 72/32/1 78/32/1 71/33/1 73/33/1
f 77/32/1 75/32/1 76/33/1 74/33/1
f 71/34/1 78/32/1 81/35/1 82/36/1
f 82/36/1 81/35/1 80/32/1 83/32/1
f 83/32/1 80/32/1 79/37/1 84/38/1
f 84/38/1 79/37/1 77/32/1 74/34/1
f 89/39/1 88/39/1 87/40/1 90/40/1
f 93/39/1 92/39/1 91/40/1 94/40/1
f 97/39/1 96/39/1 95/40/1 98/40/1
f 101/39/1 100/39/1 99/40/1 102/40/1
f 85/39/1 111/39/1 105/40/1 86/40/1
f 105/40/1 111/39/1 114/41/1 107/42/1
f 107/42/1 114/41/1 113/39/1 108/43/1
f 108/43/1 113/39/1 112/44/1 109/45/1
f 109/45/1 112/44/1 110/39/1 106/40/1
f 110/39/1 104/39/1 103/40/1 106/40/1
f 50/46/1 47/29/1 26/1/1
f 25/1/1 46/47/1 26/1/1
f 46/47/1 48/48/1 26/1/1
f 48/48/1 49/49/1 26/1/1
f 49/49/1 50/46/1 26/1/1
